<svg xmlns="http://www.w3.org/2000/svg" version="1.1" xmlns:xlink="http://www.w3.org/1999/xlink" xmlns:svgjs="http://svgjs.dev/svgjs" width="100%" height="100%" viewBox="0 0 1000 600"><rect width="1000" height="600" x="0" y="0" fill="#d2302c"/><g><rect width="333.3333333333333" height="333.3333333333333" rx="13.333333333333334" ry="13.333333333333334" y="258.614760081167" fill="#f7f7f9" transform="matrix(0.5287814522331936,0,0,0.5287814522331936,0,75.11905811238414)" x="236.39254760742185"/><path d="M266.9443104352081 500.28143326117987L266.9443104352081 493.55103897134876L274.7574203281859 493.55103897134876Q287.16475588857026 493.55103897134876 292.8709597429923 478.15891985634363L292.8709597429923 478.15891985634363L338.16943957194263 350.2814283495523L343.4367046683322 350.2814283495523L389.14486067144617 484.27479988492934Q391.251766710002 489.5420649813189 394.20728768075395 491.5319206843994Q397.1628086515058 493.55103897134876 401.78629690278115 493.55103897134876L401.78629690278115 493.55103897134876L413.57911820192004 493.55103897134876L413.57911820192004 500.28143326117987L348.2650310066893 500.28143326117987L348.2650310066893 493.55103897134876L362.1940209282528 493.55103897134876Q365.3543799860866 493.55103897134876 367.4612860246424 491.97085944243184Q369.56819206319824 490.39067991351504 369.56819206319824 488.2837738749592L369.56819206319824 488.2837738749592Q369.56819206319824 485.53309099128904 368.71957713100215 483.63102303981503L368.71957713100215 483.63102303981503L358.7995611994685 455.6267302773438L309.5213699643571 455.6267302773438L304.45894295504934 469.73129570212035Q301.5034219842974 478.15891985634363 301.5034219842974 481.96305575929165L301.5034219842974 481.96305575929165Q301.5034219842974 486.58654401056697 303.8151661099351 490.06879149095784Q306.1269102355727 493.55103897134876 311.83311408999475 493.55103897134876L311.83311408999475 493.55103897134876L324.6793884084115 493.55103897134876L324.6793884084115 500.28143326117987L266.9443104352081 500.28143326117987ZM334.57014175607645 384.60643922769106L311.83311408999475 448.8670734036439L356.4878170738308 448.8670734036439L334.57014175607645 384.60643922769106ZM441.40783546117825 500.28143326117987L441.40783546117825 493.55103897134876L461.6282809145405 493.55103897134876Q467.30522218509367 493.55103897134876 467.30522218509367 487.84483511692673L467.30522218509367 487.84483511692673L467.30522218509367 362.07424964869125Q467.30522218509367 359.11872867793926 466.0469310787339 357.74338723610424Q464.7886399723742 356.36804579426916 461.6282809145405 356.36804579426916L461.6282809145405 356.36804579426916L454.04927169251323 356.36804579426916Q440.764058616064 356.36804579426916 431.0781433554809 369.8580969578002L431.0781433554809 369.8580969578002Q424.9622633268953 378.4905591991054 422.85535728833946 391.45388385299754Q420.7484512497836 404.4172085068896 420.7484512497836 410.5330885354753L420.7484512497836 410.5330885354753L414.8666718921486 410.5330885354753L416.5346391726719 350.2814283495523L537.4768983025504 350.2814283495523L539.1741281669424 410.5330885354753L533.2630862254387 410.5330885354753Q533.2630862254387 404.4172085068896 531.1561801868829 391.45388385299754Q529.049274148327 378.4905591991054 522.9333941197413 369.8580969578002L522.9333941197413 369.8580969578002Q513.2474788591583 356.36804579426916 499.96226578270904 356.36804579426916L499.96226578270904 356.36804579426916L492.3832565606818 356.36804579426916Q489.22289750284807 356.36804579426916 487.96460639648836 357.74338723610424Q486.7063152901286 359.11872867793926 486.7063152901286 362.07424964869125L486.7063152901286 362.07424964869125L486.7063152901286 487.84483511692673Q486.7063152901286 493.55103897134876 492.3832565606818 493.55103897134876L492.3832565606818 493.55103897134876L512.6037020140441 493.55103897134876L512.6037020140441 500.28143326117987L441.40783546117825 500.28143326117987Z " fill="#d2302c" transform="matrix(0.5287814522331936,0,0,0.5287814522331936,0,75.11905811238414)"/><path d="M653.0592245720978 462.6937126835416L653.0592245720978 457.64985258434166L658.9144882524735 457.64985258434166Q668.212734696216 457.64985258434166 672.4890508672769 446.1147638357365L672.4890508672769 446.1147638357365L706.4364223175446 350.28142195093676L710.3837910908316 350.28142195093676L744.6381801123549 450.69809757805297Q746.2171276216696 454.6454663513399 748.4320401000141 456.13669455458165Q750.6469525783584 457.64985258434166 754.1118651682436 457.64985258434166L754.1118651682436 457.64985258434166L762.9495852551026 457.64985258434166L762.9495852551026 462.6937126835416L714.0022124663445 462.6937126835416L714.0022124663445 457.64985258434166L724.4408098890368 457.64985258434166Q726.8092311530089 457.64985258434166 728.3881786623236 456.46564195235555Q729.9671261716384 455.2814313203695 729.9671261716384 453.7024838110547L729.9671261716384 453.7024838110547Q729.9671261716384 451.6410801183382 729.3311612026089 450.21564139465124L729.3311612026089 450.21564139465124L721.8969500129184 429.22879741667566L684.9671221561672 429.22879741667566L681.1732621685081 439.79897379847733Q678.9583496901638 446.1147638357365 678.9583496901638 448.96564128311036L678.9583496901638 448.96564128311036Q678.9583496901638 452.4305538729956 680.6908059851064 455.04020322866864Q682.423262280049 457.64985258434166 686.6995784511099 457.64985258434166L686.6995784511099 457.64985258434166L696.3267722926263 457.64985258434166L696.3267722926263 462.6937126835416L653.0592245720978 462.6937126835416ZM703.7390536557986 376.0051084568567L686.6995784511099 424.1630074909574L720.1644937179759 424.1630074909574L703.7390536557986 376.0051084568567ZM772.4232703109913 462.6937126835416L772.4232703109913 458.89985269588254L779.0680077460245 458.89985269588254Q780.9539728265947 458.89985269588254 781.7434465812523 458.1103789412251Q782.5329203359097 457.32090518656776 782.5329203359097 455.4349401059973L782.5329203359097 455.4349401059973L782.5329203359097 397.95686480163573Q782.5329203359097 396.0708997210653 781.7434465812523 395.28142596640794Q780.9539728265947 394.4919522117506 779.0680077460245 394.4919522117506L779.0680077460245 394.4919522117506L772.4232703109913 394.4919522117506L772.4232703109913 390.69809222409145L793.9145002988869 390.69809222409145L793.9145002988869 403.6366898698653L794.5285354413982 403.79019865549316Q798.1688866434295 396.2244085066931 803.5416941404035 392.5182678251071Q808.9145016373773 388.7901973170027 815.3838004602642 388.7901973170027L815.3838004602642 388.7901973170027Q826.8969593823513 388.7901973170027 831.7215212163685 395.8954611089192Q836.546083050386 403.00072490083573 836.546083050386 412.9568661401261L836.546083050386 412.9568661401261L836.546083050386 455.4349401059973Q836.546083050386 457.32090518656776 837.3355568050433 458.1103789412251Q838.1250305597007 458.89985269588254 840.0109956402712 458.89985269588254L840.0109956402712 458.89985269588254L846.6338032487859 458.89985269588254L846.6338032487859 462.6937126835416L815.0548530624903 462.6937126835416L815.0548530624903 458.89985269588254L821.6995904975233 458.89985269588254Q823.5855555780938 458.89985269588254 824.3750293327512 458.1103789412251Q825.1645030874085 457.32090518656776 825.1645030874085 455.4349401059973L825.1645030874085 455.4349401059973L825.1645030874085 409.9524799071244Q825.1645030874085 403.00072490083573 822.4013449461077 398.1103735872636Q819.6381868048068 393.2200222736914 813.0153791962921 393.2200222736914L813.0153791962921 393.2200222736914Q807.4890629136903 393.2200222736914 803.1469572630747 397.0796717409053Q798.8048516124591 400.9612510346375 796.3487110424139 407.67177794922526Q793.9145002988869 414.3823048638131 793.9145002988869 422.5840599816426L793.9145002988869 422.5840599816426L793.9145002988869 455.4349401059973Q793.9145002988869 457.32090518656776 794.7039740535442 458.1103789412251Q795.4934478082018 458.89985269588254 797.3794128887721 458.89985269588254L797.3794128887721 458.89985269588254L804.002220497287 458.89985269588254L804.002220497287 462.6937126835416L772.4232703109913 462.6937126835416ZM894.0022285282294 500.2814353358406Q880.1206483421702 500.2814353358406 870.010998317252 495.85161037915196Q859.9013482923338 491.4217854224633 859.9013482923338 481.94810036657464L859.9013482923338 481.94810036657464Q859.9013482923338 476.11476651271727 864.4846820346502 471.68494155602855Q869.0680157769668 467.27704642585815 875.3838058142258 466.3340638855729L875.3838058142258 466.3340638855729L875.3838058142258 465.8516077021712Q861.4802958016485 462.8472214691695 861.4802958016485 454.1630101679382L861.4802958016485 454.1630101679382Q861.4802958016485 447.6937113450512 866.4583664212937 443.9875706634652Q871.4364370409389 440.2814299818791 878.6952096184832 439.00950004381997L878.6952096184832 439.00950004381997L878.6952096184832 438.52704386041825Q872.0724020099685 435.6980962395626 867.4013489615788 429.93055186526Q862.7522257397077 424.1630074909574 862.7522257397077 414.68932243506873L862.7522257397077 414.68932243506873Q862.7522257397077 406.64107610286703 866.6995945129945 400.80774224900966Q870.6469632862816 394.95247856863404 877.0285428030954 391.8823028560775Q883.4320521464276 388.7901973170027 890.8443335095997 388.7901973170027L890.8443335095997 388.7901973170027Q895.4276672519161 388.7901973170027 899.9232816881597 390.30335534676277Q904.4408259509214 391.79458355000446 907.6645104491058 393.76826793664793Q910.9101247738083 395.7419523232914 911.8531073140934 397.01388226135055L911.8531073140934 397.01388226135055Q913.2785460377804 392.9130047024358 916.4364410564101 390.8516010097193Q919.5943360750396 388.7901973170027 922.7522310936693 388.7901973170027L922.7522310936693 388.7901973170027Q928.125038590643 388.7901973170027 931.5899511805283 391.9480923356323Q935.0548637704135 395.10598735426186 935.0548637704135 400.17177727998006L935.0548637704135 400.17177727998006Q935.0548637704135 403.96563726763924 933.256617995916 406.3340585316114Q931.4364423949005 408.70247979558354 928.4320561618988 408.70247979558354L928.4320561618988 408.70247979558354Q925.9101261122987 408.70247979558354 924.0022312052101 407.3428305514514Q922.1162661246397 406.0051111338375 922.1162661246397 403.00072490083573L922.1162661246397 403.00072490083573Q922.1162661246397 399.5358123109505 924.7917049598675 397.95686480163573L924.7917049598675 397.95686480163573Q925.756617326671 397.3208998326062 926.1513542039995 396.7726541696497Q926.5460910813283 396.2244085066931 926.5460910813283 395.10598735426186L926.5460910813283 395.10598735426186Q926.5460910813283 393.85598724272097 925.2741611432691 393.2200222736914Q924.0022312052101 392.5840573046618 922.2697749102674 392.5840573046618L922.2697749102674 392.5840573046618Q919.4408272894118 392.5840573046618 917.1381955049944 394.88668908907925Q914.8574935470954 397.16739104697837 914.5285461493213 400.17177727998006L914.5285461493213 400.17177727998006Q918.95837110601 406.3340585316114 918.95837110601 414.68932243506873L918.95837110601 414.68932243506873Q918.95837110601 422.5840599816426 915.1645111183509 428.505113141573Q911.3706511306918 434.4261663015035 904.989071613878 437.5182718405782Q898.5855622705458 440.58844755313476 890.8443335095997 440.58844755313476L890.8443335095997 440.58844755313476Q881.8531046371127 440.58844755313476 874.8355601512694 443.04458812317995Q867.7960858389076 445.4787988667069 867.7960858389076 451.15862393493643L867.7960858389076 451.15862393493643Q867.7960858389076 454.1630101679382 870.4934545006536 455.2814313203695Q873.1688933358814 456.3779226462825 877.9057358638258 456.3779226462825L877.9057358638258 456.3779226462825Q881.2171396680833 456.3779226462825 883.2785433607996 456.2244138606547L883.2785433607996 456.2244138606547Q885.1645084413701 456.0709050750269 888.1688946743718 456.0709050750269L888.1688946743718 456.0709050750269L904.4408259509214 456.0709050750269Q914.5285461493213 456.0709050750269 921.3267923699823 461.50950205155556Q928.125038590643 466.94809902808424 928.125038590643 477.54020523640423L928.125038590643 477.54020523640423Q928.125038590643 488.5928378016077 918.7171430143092 494.426171655465Q909.3311772644936 500.2814353358406 894.0022285282294 500.2814353358406L894.0022285282294 500.2814353358406ZM890.8443335095997 436.79458756547564Q898.1250359136623 436.79458756547564 902.2259134725771 430.96125371161827Q906.3267910314919 425.10599003124264 906.3267910314919 414.68932243506873L906.3267910314919 414.68932243506873Q906.3267910314919 404.2726548388949 902.2259134725771 398.4393209850375Q898.1250359136623 392.5840573046618 890.8443335095997 392.5840573046618L890.8443335095997 392.5840573046618Q883.5855609320554 392.5840573046618 879.4846833731406 398.4393209850375Q875.3838058142258 404.2726548388949 875.3838058142258 414.68932243506873L875.3838058142258 414.68932243506873Q875.3838058142258 425.10599003124264 879.4846833731406 430.96125371161827Q883.5855609320554 436.79458756547564 890.8443335095997 436.79458756547564L890.8443335095997 436.79458756547564ZM894.0022285282294 496.48757534818157Q905.3838084912065 496.48757534818157 913.91451100681 492.4524872688215Q922.4232836958952 488.4393290159798 922.4232836958952 478.79020534794506L922.4232836958952 478.79020534794506Q922.4232836958952 473.89985403437294 919.5066167689665 470.3472221384147Q916.5899498420379 466.7945902424564 909.3311772644936 466.7945902424564L909.3311772644936 466.7945902424564L891.8092458764031 466.7945902424564Q881.6995958514849 466.7945902424564 874.2653846617945 470.1937133527868Q866.8531032986223 473.59283646311724 866.8531032986223 481.64108279531894L866.8531032986223 481.64108279531894Q866.8531032986223 489.0533641584911 875.230297028598 492.78143466659543Q883.5855609320554 496.48757534818157 894.0022285282294 496.48757534818157L894.0022285282294 496.48757534818157ZM973.278551391742 464.5796777641121Q961.7434626431368 464.5796777641121 956.9408306356377 457.4744139721956Q952.1162688016204 450.36915018027906 952.1162688016204 440.43493876750694L952.1162688016204 440.43493876750694L952.1162688016204 397.95686480163573Q952.1162688016204 396.0708997210653 951.3267950469631 395.28142596640794Q950.5373212923057 394.4919522117506 948.6513562117352 394.4919522117506L948.6513562117352 394.4919522117506L942.0066187767022 394.4919522117506L942.0066187767022 390.69809222409145L963.4759189380795 390.69809222409145L963.4759189380795 443.43932500050863Q963.4759189380795 450.36915018027906 966.2390770793804 455.2814313203695Q969.0022352206813 460.17178263394163 975.6469726557143 460.17178263394163L975.6469726557143 460.17178263394163Q981.1732889383159 460.17178263394163 985.5153945889315 456.2902033402095Q989.8575002395471 452.4305538729956 992.2917109830742 445.7200269584078Q994.7478515531193 439.00950004381997 994.7478515531193 430.80774492599045L994.7478515531193 430.80774492599045L994.7478515531193 397.95686480163573Q994.7478515531193 396.0708997210653 993.9583777984619 395.28142596640794Q993.1689040438046 394.4919522117506 991.2829389632341 394.4919522117506L991.2829389632341 394.4919522117506L984.6382015282011 394.4919522117506L984.6382015282011 390.69809222409145L1006.1075016895784 390.69809222409145L1006.1075016895784 455.4349401059973Q1006.1075016895784 457.32090518656776 1006.896975444236 458.1103789412251Q1007.6864491988933 458.89985269588254 1009.5943441059819 458.89985269588254L1009.5943441059819 458.89985269588254L1016.2171517144966 458.89985269588254L1016.2171517144966 462.6937126835416L994.7478515531193 462.6937126835416L994.7478515531193 449.7551150377678L994.1118865840899 449.5796764256217Q990.4934652085769 457.16739640093994 985.1206577116029 460.873537082526Q979.7478502146289 464.5796777641121 973.278551391742 464.5796777641121L973.278551391742 464.5796777641121ZM1025.6908367703854 462.6937126835416L1025.6908367703854 458.89985269588254L1033.9145217147334 458.89985269588254Q1035.8004867953036 458.89985269588254 1036.5899605499612 458.1103789412251Q1037.3794343046184 457.32090518656776 1037.3794343046184 455.4349401059973L1037.3794343046184 455.4349401059973L1037.3794343046184 357.5401945284811Q1037.3794343046184 355.6322996213924 1036.5899605499612 354.84282586673504Q1035.8004867953036 354.0533521120776 1033.9145217147334 354.0533521120776L1033.9145217147334 354.0533521120776L1025.6908367703854 354.0533521120776L1025.6908367703854 350.28142195093676L1048.7390844410775 350.28142195093676L1048.7390844410775 455.4349401059973Q1048.7390844410775 457.32090518656776 1049.528558195735 458.1103789412251Q1050.3180319503922 458.89985269588254 1052.2259268574812 458.89985269588254L1052.2259268574812 458.89985269588254L1060.4276819753104 458.89985269588254L1060.4276819753104 462.6937126835416L1025.6908367703854 462.6937126835416ZM1091.6996145903504 464.5796777641121Q1083.3224208603747 464.5796777641121 1077.2478589148168 460.4788002051973Q1071.1732969692584 456.3779226462825 1071.1732969692584 445.96125505010866L1071.1732969692584 445.96125505010866Q1071.1732969692584 437.91300871790696 1075.2741745281733 433.3296749755904Q1079.375052087088 428.7463412332739 1084.835578890135 426.77265684663047Q1090.2741758666634 424.79897245998694 1098.0154046276098 423.37353373630003L1098.0154046276098 423.37353373630003L1112.5329497826983 420.69809490107224L1112.5329497826983 407.2770410718966Q1112.5329497826983 392.5840573046618 1097.8618958419815 392.5840573046618L1097.8618958419815 392.5840573046618Q1092.489088345008 392.5840573046618 1088.0592633883193 395.3472154459627Q1083.651368258149 398.1103735872636 1083.651368258149 401.59721600366703L1083.651368258149 401.59721600366703Q1083.651368258149 403.1761635129818 1084.1118946150323 403.96563726763924L1084.1118946150323 403.96563726763924Q1084.4408420128061 404.4261636245227 1085.1425964613904 404.9086198079244Q1085.8443509099748 405.3691461648079 1086.4803158790046 405.54458477695397L1086.4803158790046 405.54458477695397Q1089.3311933263785 406.3340585316114 1090.82242152962 407.7375674287801Q1092.3355795593802 409.163006152467 1092.3355795593802 411.68493620206704L1092.3355795593802 411.68493620206704Q1092.3355795593802 415.0182698328427 1090.3618951727367 416.42177873001134Q1088.3882107860932 417.8472174536983 1085.3838245530915 417.8472174536983L1085.3838245530915 417.8472174536983Q1081.8969821366877 417.8472174536983 1079.068034515832 415.17177861847046Q1076.2171570684586 412.4744099567244 1076.2171570684586 407.4305498575244L1076.2171570684586 407.4305498575244Q1076.2171570684586 401.59721600366703 1079.462771393161 397.3208998326062Q1082.6864558913453 393.0665134880636 1087.8180352966183 390.9393203157923Q1092.9496147018913 388.7901973170027 1098.3224221988653 388.7901973170027L1098.3224221988653 388.7901973170027Q1108.739089795039 388.7901973170027 1116.3268097703572 394.25072412004965Q1123.9145297456757 399.68932109657834 1123.9145297456757 411.2244098451835L1123.9145297456757 411.2244098451835L1123.9145297456757 450.0621326090234Q1123.9145297456757 457.9568701555973 1128.8048810592477 457.9568701555973L1128.8048810592477 457.9568701555973Q1132.7522498325347 457.9568701555973 1134.4847061274772 453.3735364132808Q1136.2171624224197 448.7902026709643 1136.2171624224197 442.16739506244954L1136.2171624224197 442.16739506244954L1139.0680398697937 442.16739506244954Q1139.0680398697937 451.6410801183382 1136.304881728493 458.1103789412251Q1133.5417235871923 464.5796777641121 1126.4364597952754 464.5796777641121L1126.4364597952754 464.5796777641121Q1119.6382135746148 464.5796777641121 1116.2390904642843 460.5665195112703Q1112.8618971804722 456.53143143191033 1112.5329497826983 449.4261676399938L1112.5329497826983 449.4261676399938L1111.7434760280407 449.1191500687382Q1109.3750547640689 454.6454663513399 1104.0899665731677 459.6235369709851Q1098.804878382267 464.5796777641121 1091.6996145903504 464.5796777641121L1091.6996145903504 464.5796777641121ZM1094.2215446399505 458.89985269588254Q1101.326808431867 458.89985269588254 1105.3618965112269 453.30774693372604Q1109.3750547640689 447.6937113450512 1112.5329497826983 439.00950004381997L1112.5329497826983 439.00950004381997L1112.5329497826983 424.0094987053296L1098.804878382267 427.01388493833133Q1091.2171584069488 428.5928324476461 1087.8180352966183 433.2419556695174Q1084.4408420128061 437.91300871790696 1084.4408420128061 446.4217814069921L1084.4408420128061 446.4217814069921Q1084.4408420128061 453.7024838110547 1087.4232984192895 456.2902033402095Q1090.4276846522912 458.89985269588254 1094.2215446399505 458.89985269588254L1094.2215446399505 458.89985269588254ZM1147.9057599566531 462.6937126835416L1147.9057599566531 458.89985269588254L1154.5285675651676 458.89985269588254Q1156.4364624722566 458.89985269588254 1157.2259362269137 458.1103789412251Q1158.0154099815713 457.32090518656776 1158.0154099815713 455.4349401059973L1158.0154099815713 455.4349401059973L1158.0154099815713 397.95686480163573Q1158.0154099815713 396.0708997210653 1157.2259362269137 395.28142596640794Q1156.4364624722566 394.4919522117506 1154.5285675651676 394.4919522117506L1154.5285675651676 394.4919522117506L1147.9057599566531 394.4919522117506L1147.9057599566531 390.69809222409145L1169.3750601180304 390.69809222409145L1169.3750601180304 406.4875673172392L1170.0110250870598 406.64107610286703Q1173.322428891317 398.4393209850375 1178.6075170822182 393.6147591510201Q1183.9145350996373 388.7901973170027 1189.9013777391224 388.7901973170027L1189.9013777391224 388.7901973170027Q1195.9101502051258 388.7901973170027 1199.704010192785 392.2770397334062Q1203.475940353926 395.7419523232914 1203.475940353926 401.75072478929485L1203.475940353926 401.75072478929485Q1203.475940353926 405.21563737918007 1201.0417296103988 408.52704118343746Q1198.5855890403536 411.8603748142131 1194.7917290526943 411.8603748142131L1194.7917290526943 411.8603748142131Q1191.809272646211 411.8603748142131 1189.7478689534946 410.28142730489833Q1187.6864652607778 408.70247979558354 1187.6864652607778 405.8516023482096L1187.6864652607778 405.8516023482096Q1187.6864652607778 402.5401985439523 1190.8443602794077 400.17177727998006L1190.8443602794077 400.17177727998006Q1192.2697990030947 399.2287947396949 1192.9934832781973 398.4393209850375Q1193.6952377267817 397.6498472303801 1193.6952377267817 396.377917292321L1193.6952377267817 396.377917292321Q1193.6952377267817 394.95247856863404 1192.3575183091675 394.09721533442183Q1191.0197988915538 393.2200222736914 1188.6513776275815 393.2200222736914L1188.6513776275815 393.2200222736914Q1183.7390964874912 393.2200222736914 1179.2434820512476 397.95686480163573Q1174.747867615004 402.6937073295801 1172.0724287797761 410.28142730489833Q1169.3750601180304 417.8472174536983 1169.3750601180304 426.0709023980461L1169.3750601180304 426.0709023980461L1169.3750601180304 455.4349401059973Q1169.3750601180304 457.32090518656776 1170.1645338726876 458.1103789412251Q1170.9540076273452 458.89985269588254 1172.8619025344337 458.89985269588254L1172.8619025344337 458.89985269588254L1179.4847101429486 458.89985269588254L1179.4847101429486 462.6937126835416L1147.9057599566531 462.6937126835416ZM1282.1162982484093 462.6937126835416L1282.1162982484093 457.64985258434166L1297.2698083725272 457.64985258434166Q1301.5461245435881 457.64985258434166 1301.5461245435881 453.3735364132808L1301.5461245435881 453.3735364132808L1301.5461245435881 359.1191420377959Q1301.5461245435881 356.9042295594515 1300.5812121767844 355.87352771309327Q1299.638229636499 354.84282586673504 1297.2698083725272 354.84282586673504L1297.2698083725272 354.84282586673504L1291.5899833042977 354.84282586673504Q1281.6338420650072 354.84282586673504 1274.375069487463 364.95247589165325L1274.375069487463 364.95247589165325Q1269.7917357451465 371.42177471454016 1268.2127882358318 381.1366878621297Q1266.633840726517 390.8516010097193 1266.633840726517 395.43493475203576L1266.633840726517 395.43493475203576L1262.2259455963463 395.43493475203576L1263.4759457078871 350.28142195093676L1354.1119187078593 350.28142195093676L1355.3838486459185 395.43493475203576L1350.9540236892299 395.43493475203576Q1350.9540236892299 390.8516010097193 1349.3750761799147 381.1366878621297Q1347.7961286706004 371.42177471454016 1343.2127949282835 364.95247589165325L1343.2127949282835 364.95247589165325Q1335.9540223507393 354.84282586673504 1326.0198109379671 354.84282586673504L1326.0198109379671 354.84282586673504L1320.3180560432193 354.84282586673504Q1317.949634779247 354.84282586673504 1317.006652238962 355.87352771309327Q1316.0636696986767 356.9042295594515 1316.0636696986767 359.1191420377959L1316.0636696986767 359.1191420377959L1316.0636696986767 453.3735364132808Q1316.0636696986767 457.64985258434166 1320.3180560432193 457.64985258434166L1320.3180560432193 457.64985258434166L1335.493495993856 457.64985258434166L1335.493495993856 462.6937126835416L1282.1162982484093 462.6937126835416ZM1368.0154287204364 462.6937126835416L1368.0154287204364 458.89985269588254L1376.8531488072958 458.89985269588254Q1378.739113887866 458.89985269588254 1379.5285876425232 458.1103789412251Q1380.3180613971808 457.32090518656776 1380.3180613971808 455.4349401059973L1380.3180613971808 455.4349401059973L1380.3180613971808 357.5401945284811Q1380.3180613971808 355.6322996213924 1379.5285876425232 354.84282586673504Q1378.739113887866 354.0533521120776 1376.8531488072958 354.0533521120776L1376.8531488072958 354.0533521120776L1368.0154287204364 354.0533521120776L1368.0154287204364 350.28142195093676L1391.6996413601582 350.28142195093676L1391.6996413601582 403.6366898698653L1392.335606329188 403.79019865549316Q1395.9540277047008 396.2244085066931 1401.3268352016748 392.5182678251071Q1406.6996426986489 388.7901973170027 1413.1689415215355 388.7901973170027L1413.1689415215355 388.7901973170027Q1424.7040302701407 388.7901973170027 1429.5066622776399 395.8954611089192Q1434.3312241116573 403.00072490083573 1434.3312241116573 412.9568661401261L1434.3312241116573 412.9568661401261L1434.3312241116573 455.4349401059973Q1434.3312241116573 457.32090518656776 1435.120697866315 458.1103789412251Q1435.910171620972 458.89985269588254 1437.7961367015423 458.89985269588254L1437.7961367015423 458.89985269588254L1444.4408741365755 458.89985269588254L1444.4408741365755 462.6937126835416L1412.86192395028 462.6937126835416L1412.86192395028 458.89985269588254L1419.484731558795 458.89985269588254Q1421.3706966393652 458.89985269588254 1422.1601703940223 458.1103789412251Q1422.94964414868 457.32090518656776 1422.94964414868 455.4349401059973L1422.94964414868 455.4349401059973L1422.94964414868 409.9524799071244Q1422.94964414868 403.00072490083573 1420.1864860073792 398.1103735872636Q1417.4233278660781 393.2200222736914 1410.8005202575632 393.2200222736914L1410.8005202575632 393.2200222736914Q1405.2742039749614 393.2200222736914 1400.932098324346 397.0796717409053Q1396.5899926737302 400.9612510346375 1394.133852103685 407.67177794922526Q1391.6996413601582 414.3823048638131 1391.6996413601582 422.5840599816426L1391.6996413601582 422.5840599816426L1391.6996413601582 455.4349401059973Q1391.6996413601582 457.32090518656776 1392.4891151148158 458.1103789412251Q1393.278588869473 458.89985269588254 1395.1645539500432 458.89985269588254L1395.1645539500432 458.89985269588254L1401.8092913850764 458.89985269588254L1401.8092913850764 462.6937126835416L1368.0154287204364 462.6937126835416ZM1470.3180694281232 371.1147571432845Q1466.8531568382377 371.1147571432845 1464.4847355742659 368.74633587931237Q1462.1163143102935 366.3779146153402 1462.1163143102935 362.913002025455L1462.1163143102935 362.913002025455Q1462.1163143102935 359.2726508234237 1464.4847355742659 356.99194886552453Q1466.8531568382377 354.68931708110716 1470.3180694281232 354.68931708110716L1470.3180694281232 354.68931708110716Q1473.9584206301547 354.68931708110716 1476.2391225880538 356.99194886552453Q1478.5417543724711 359.2726508234237 1478.5417543724711 362.913002025455L1478.5417543724711 362.913002025455Q1478.5417543724711 366.3779146153402 1476.2391225880538 368.74633587931237Q1473.9584206301547 371.1147571432845 1470.3180694281232 371.1147571432845L1470.3180694281232 371.1147571432845ZM1455.493506701779 462.6937126835416L1455.493506701779 458.89985269588254L1462.1163143102935 458.89985269588254Q1464.0022793908643 458.89985269588254 1464.7917531455214 458.1103789412251Q1465.581226900179 457.32090518656776 1465.581226900179 455.4349401059973L1465.581226900179 455.4349401059973L1465.581226900179 397.95686480163573Q1465.581226900179 396.0708997210653 1464.7917531455214 395.28142596640794Q1464.0022793908643 394.4919522117506 1462.1163143102935 394.4919522117506L1462.1163143102935 394.4919522117506L1455.493506701779 394.4919522117506L1455.493506701779 390.69809222409145L1476.9628068631564 390.69809222409145L1476.9628068631564 455.4349401059973Q1476.9628068631564 457.32090518656776 1477.7522806178135 458.1103789412251Q1478.5417543724711 458.89985269588254 1480.4277194530414 458.89985269588254L1480.4277194530414 458.89985269588254L1487.0724568880746 458.89985269588254L1487.0724568880746 462.6937126835416L1455.493506701779 462.6937126835416ZM1498.1250894532782 462.6937126835416L1498.1250894532782 458.89985269588254L1504.7478970617926 458.89985269588254Q1506.633862142363 458.89985269588254 1507.4233358970205 458.1103789412251Q1508.212809651678 457.32090518656776 1508.212809651678 455.4349401059973L1508.212809651678 455.4349401059973L1508.212809651678 397.95686480163573Q1508.212809651678 396.0708997210653 1507.4233358970205 395.28142596640794Q1506.633862142363 394.4919522117506 1504.7478970617926 394.4919522117506L1504.7478970617926 394.4919522117506L1498.1250894532782 394.4919522117506L1498.1250894532782 390.69809222409145L1519.594389614655 390.69809222409145L1519.594389614655 403.6366898698653L1520.2303545836849 403.79019865549316Q1523.848775959198 396.2244085066931 1529.2215834561716 392.5182678251071Q1534.5943909531456 388.7901973170027 1541.0636897760328 388.7901973170027L1541.0636897760328 388.7901973170027Q1552.598778524638 388.7901973170027 1557.401410532137 395.8954611089192Q1562.225972366154 403.00072490083573 1562.225972366154 412.9568661401261L1562.225972366154 412.9568661401261L1562.225972366154 455.4349401059973Q1562.225972366154 457.32090518656776 1563.0154461208117 458.1103789412251Q1563.8049198754688 458.89985269588254 1565.6908849560396 458.89985269588254L1565.6908849560396 458.89985269588254L1572.3356223910723 458.89985269588254L1572.3356223910723 462.6937126835416L1540.7566722047768 462.6937126835416L1540.7566722047768 458.89985269588254L1547.3794798132917 458.89985269588254Q1549.265444893862 458.89985269588254 1550.0549186485196 458.1103789412251Q1550.8443924031767 457.32090518656776 1550.8443924031767 455.4349401059973L1550.8443924031767 455.4349401059973L1550.8443924031767 409.9524799071244Q1550.8443924031767 403.00072490083573 1548.081234261876 398.1103735872636Q1545.3180761205754 393.2200222736914 1538.6952685120605 393.2200222736914L1538.6952685120605 393.2200222736914Q1533.1689522294587 393.2200222736914 1528.8268465788433 397.0796717409053Q1524.4847409282274 400.9612510346375 1522.0286003581823 407.67177794922526Q1519.594389614655 414.3823048638131 1519.594389614655 422.5840599816426L1519.594389614655 422.5840599816426L1519.594389614655 455.4349401059973Q1519.594389614655 457.32090518656776 1520.3838633693126 458.1103789412251Q1521.1733371239702 458.89985269588254 1523.0593022045405 458.89985269588254L1523.0593022045405 458.89985269588254L1529.7040396395732 458.89985269588254L1529.7040396395732 462.6937126835416L1498.1250894532782 462.6937126835416ZM1581.8093074469612 462.6937126835416L1581.8093074469612 458.89985269588254L1590.0110625647908 458.89985269588254Q1591.897027645361 458.89985269588254 1592.6865014000186 458.1103789412251Q1593.4759751546758 457.32090518656776 1593.4759751546758 455.4349401059973L1593.4759751546758 455.4349401059973L1593.4759751546758 357.5401945284811Q1593.4759751546758 355.6322996213924 1592.6865014000186 354.84282586673504Q1591.897027645361 354.0533521120776 1590.0110625647908 354.0533521120776L1590.0110625647908 354.0533521120776L1581.8093074469612 354.0533521120776L1581.8093074469612 350.28142195093676L1604.8575551176532 350.28142195093676L1604.8575551176532 430.63230631384437L1626.3268552790305 404.4261636245227Q1628.059311573973 402.5401985439523 1628.6075572369296 401.42177739152095Q1629.1777327264044 400.32528606560794 1629.1777327264044 398.59282977066533L1629.1777327264044 398.59282977066533Q1629.1777327264044 396.53142607794877 1627.6645746966446 395.50072423159054Q1626.1733464934027 394.4919522117506 1623.8049252294304 394.4919522117506L1623.8049252294304 394.4919522117506L1619.704047670516 394.4919522117506L1619.704047670516 390.69809222409145L1651.8970329993226 390.69809222409145L1651.8970329993226 394.4919522117506L1646.853172900123 394.4919522117506Q1642.5987865555803 394.4919522117506 1639.2654529248043 396.68493486357664Q1635.954049120547 398.899847341921 1631.6996627760045 404.11914605326706L1631.6996627760045 404.11914605326706L1619.704047670516 418.79019999398355L1644.3312428505228 453.85599259668254Q1646.217207931093 456.53143143191033 1647.64264665478 457.71564206389644Q1649.068085378467 458.89985269588254 1651.590015428067 458.89985269588254L1651.590015428067 458.89985269588254L1654.7479104466966 458.89985269588254L1654.7479104466966 462.6937126835416L1621.2829951798308 462.6937126835416L1621.2829951798308 458.89985269588254L1625.3838727387451 458.89985269588254Q1627.4233466049436 458.89985269588254 1628.541767757375 458.19809824729816Q1629.6382590832882 457.4744139721956 1629.6382590832882 455.74195767725297L1629.6382590832882 455.74195767725297Q1629.6382590832882 454.00950138231036 1629.1777327264044 452.91301005639735Q1628.6952765430028 451.79458890396603 1627.5987852170897 450.0621326090234L1627.5987852170897 450.0621326090234L1612.1163276951975 427.9568674786165L1604.8575551176532 436.79458756547564L1604.8575551176532 455.4349401059973Q1604.8575551176532 457.32090518656776 1605.6470288723108 458.1103789412251Q1606.436502626968 458.89985269588254 1608.3224677075386 458.89985269588254L1608.3224677075386 458.89985269588254L1613.3882576332567 458.89985269588254L1613.3882576332567 462.6937126835416L1581.8093074469612 462.6937126835416Z " fill="#f7f7f9" transform="matrix(0.5287814522331936,0,0,0.5287814522331936,0,75.11905811238414)"/></g></svg>